<?xml version="1.0" standalone="no"?><!-- Generator: Gravit.io --><svg xmlns="http://www.w3.org/2000/svg" xmlns:xlink="http://www.w3.org/1999/xlink" style="isolation:isolate" viewBox="0 0 24 24" width="24" height="24"><defs><clipPath id="_clipPath_JPLcprF43OAWeYuoCnzpQLeGqqvseGX4"><rect width="24" height="24"/></clipPath></defs><g clip-path="url(#_clipPath_JPLcprF43OAWeYuoCnzpQLeGqqvseGX4)"><path d=" M 3 12 C 3 7.033 7.033 3 12 3 C 16.967 3 21 7.033 21 12 C 21 16.967 16.967 21 12 21 C 7.033 21 3 16.967 3 12 Z " fill-rule="evenodd" fill="rgb(76,175,80)"/><path d=" M 15 17 L 15 14 L 17 12 L 17 8 L 15 8 L 15 9 L 13 9 L 13 8 L 11 8 L 11 9 L 9 9 L 9 8 L 7 8 L 7 12 L 9 14 L 9 17 L 11 17 L 11 14 L 13 14 L 13 17 L 15 17 M 8 11 L 16 11 L 15 12 L 9 12 L 8 11 M 15 17 Z " fill-rule="evenodd" fill="rgb(255,255,255)"/></g></svg>