<?xml version="1.0" standalone="no"?><!-- Generator: Gravit.io --><svg xmlns="http://www.w3.org/2000/svg" xmlns:xlink="http://www.w3.org/1999/xlink" style="isolation:isolate" viewBox="0 0 24 24" width="24" height="24"><defs><clipPath id="_clipPath_AHYxJsA5J91zKPfq7xD9vqRyPJKsayGT"><rect width="24" height="24"/></clipPath></defs><g clip-path="url(#_clipPath_AHYxJsA5J91zKPfq7xD9vqRyPJKsayGT)"><path d=" M 8 22 C 8 20.896 9.792 20 12 20 C 14.208 20 16 20.896 16 22 C 16 23.104 14.208 24 12 24 C 9.792 24 8 23.104 8 22 Z " fill="rgb(0,0,0)" fill-opacity="0.33"/><path d=" M 14.296 19.704 L 12 22 L 9.704 19.704 C 5.847 18.688 3 15.174 3 11 C 3 6.033 7.033 2 12 2 C 16.967 2 21 6.033 21 11 C 21 15.174 18.153 18.688 14.296 19.704 Z " fill-rule="evenodd" fill="rgb(33,33,33)"/><path d=" M 15 16 L 15 13 L 17 11 L 17 7 L 15 7 L 15 8 L 13 8 L 13 7 L 11 7 L 11 8 L 9 8 L 9 7 L 7 7 L 7 11 L 9 13 L 9 16 L 11 16 L 11 13 L 13 13 L 13 16 L 15 16 M 8 10 L 16 10 L 15 11 L 9 11 L 8 10 M 15 16 Z " fill-rule="evenodd" fill="rgb(255,255,255)"/></g></svg>