<?xml version="1.0" standalone="no"?><!-- Generator: Gravit.io --><svg xmlns="http://www.w3.org/2000/svg" xmlns:xlink="http://www.w3.org/1999/xlink" style="isolation:isolate" viewBox="0 0 24 24" width="24" height="24"><defs><clipPath id="_clipPath_jjCkx7ZadWxzn7zEhE34gbWHOtphcJ42"><rect width="24" height="24"/></clipPath></defs><g clip-path="url(#_clipPath_jjCkx7ZadWxzn7zEhE34gbWHOtphcJ42)"><path d=" M 3 12 C 3 7.033 7.033 3 12 3 C 16.967 3 21 7.033 21 12 C 21 16.967 16.967 21 12 21 C 7.033 21 3 16.967 3 12 Z " fill-rule="evenodd" fill="rgb(244,67,54)"/><path d=" M 6.256 16 L 7 16 L 10.177 12.823 L 10.177 12.823 C 10.063 12.572 10 12.293 10 12 C 10 11.189 10.483 10.491 11.177 10.177 L 9 8 L 8 8 L 8 7 L 9.564 5.436 C 10.022 5.266 10.502 5.142 11 5.071 L 11 6 L 18.773 13.773 C 18.448 15.017 17.789 16.127 16.897 17 L 16 17 L 16 16 L 17 16 L 13.823 12.823 C 13.509 13.517 12.811 14 12 14 C 11.707 14 11.428 13.937 11.177 13.823 L 9 16 L 10 16 L 10 17 L 7.103 17 C 6.791 16.694 6.507 16.359 6.256 16 Z  M 11 12 C 11 11.448 11.448 11 12 11 C 12.552 11 13 11.448 13 12 C 13 12.552 12.552 13 12 13 C 11.448 13 11 12.552 11 12 L 11 12 Z " fill-rule="evenodd" fill="rgb(255,255,255)"/></g></svg>