<?xml version="1.0" standalone="no"?><!-- Generator: Gravit.io --><svg xmlns="http://www.w3.org/2000/svg" xmlns:xlink="http://www.w3.org/1999/xlink" style="isolation:isolate" viewBox="0 0 24 24" width="24" height="24"><defs><clipPath id="_clipPath_guTindobe1U6Tuu06ncagLBTJL3tcFIW"><rect width="24" height="24"/></clipPath></defs><g clip-path="url(#_clipPath_guTindobe1U6Tuu06ncagLBTJL3tcFIW)"><path d=" M 8 22 C 8 20.896 9.792 20 12 20 C 14.208 20 16 20.896 16 22 C 16 23.104 14.208 24 12 24 C 9.792 24 8 23.104 8 22 Z " fill="rgb(0,0,0)" fill-opacity="0.33"/><path d=" M 14.296 19.704 L 12 22 L 9.704 19.704 C 5.847 18.688 3 15.174 3 11 C 3 6.033 7.033 2 12 2 C 16.967 2 21 6.033 21 11 C 21 15.174 18.153 18.688 14.296 19.704 Z " fill-rule="evenodd" fill="rgb(33,33,33)"/><path d=" M 6.256 15 L 7 15 L 10.177 11.823 L 10.177 11.823 C 10.063 11.572 10 11.293 10 11 C 10 10.189 10.483 9.491 11.177 9.177 L 9 7 L 8 7 L 8 6 L 9.564 4.436 C 10.022 4.266 10.502 4.142 11 4.071 L 11 5 L 18.773 12.773 C 18.448 14.017 17.789 15.127 16.897 16 L 16 16 L 16 15 L 17 15 L 13.823 11.823 C 13.509 12.517 12.811 13 12 13 C 11.707 13 11.428 12.937 11.177 12.823 L 9 15 L 10 15 L 10 16 L 7.103 16 C 6.791 15.694 6.507 15.359 6.256 15 Z  M 11 11 C 11 10.448 11.448 10 12 10 C 12.552 10 13 10.448 13 11 C 13 11.552 12.552 12 12 12 C 11.448 12 11 11.552 11 11 L 11 11 Z " fill-rule="evenodd" fill="rgb(255,255,255)"/></g></svg>