<?xml version="1.0" standalone="no"?><!-- Generator: Gravit.io --><svg xmlns="http://www.w3.org/2000/svg" xmlns:xlink="http://www.w3.org/1999/xlink" style="isolation:isolate" viewBox="0 0 24 24" width="24" height="24"><defs><clipPath id="_clipPath_flvo6UNQP0ILikREgRAivnwCgJ5LwkLk"><rect width="24" height="24"/></clipPath></defs><g clip-path="url(#_clipPath_flvo6UNQP0ILikREgRAivnwCgJ5LwkLk)"><path d=" M 8 22 C 8 20.896 9.792 20 12 20 C 14.208 20 16 20.896 16 22 C 16 23.104 14.208 24 12 24 C 9.792 24 8 23.104 8 22 Z " fill="rgb(0,0,0)" fill-opacity="0.33"/><path d=" M 14.296 19.704 L 12 22 L 9.704 19.704 C 5.847 18.688 3 15.174 3 11 C 3 6.033 7.033 2 12 2 C 16.967 2 21 6.033 21 11 C 21 15.174 18.153 18.688 14.296 19.704 Z " fill-rule="evenodd" fill="rgb(33,33,33)"/><path d=" M 9.471 4.471 L 11 6 L 13 6 L 14.529 4.471 C 14.283 4.376 14.031 4.294 13.773 4.227 L 13 5 L 12 4 L 11 5 L 10.227 4.227 C 9.969 4.294 9.717 4.376 9.471 4.471 Z  M 11 7 L 9 10 L 15 10 L 13 7 L 11 7 Z  M 9 12 L 15 12 L 15 11 L 9 11 L 9 12 Z  M 12 17 L 15 13 L 9 13 L 12 17 Z  M 10.947 17.921 L 7 12 L 8 16 L 6 14 L 6.247 14.986 C 7.321 16.534 9.004 17.628 10.947 17.921 Z  M 17.753 14.986 L 18 14 L 16 16 L 17 12 L 13.053 17.921 C 14.996 17.628 16.679 16.534 17.753 14.986 Z " fill-rule="evenodd" fill="rgb(255,255,255)"/></g></svg>